<svg width="12" height="25" viewBox="0 0 12 25" fill="none" xmlns="http://www.w3.org/2000/svg">
<path d="M5.73 6.10001C7.23774 6.10001 8.46 4.87775 8.46 3.37001C8.46 1.86228 7.23774 0.640015 5.73 0.640015C4.22226 0.640015 3 1.86228 3 3.37001C3 4.87775 4.22226 6.10001 5.73 6.10001Z" stroke="#E5BF7C" stroke-width="1.27" stroke-miterlimit="10"/>
<path d="M0.629883 16.72L1.81988 10.07C2.15988 8.08996 3.55988 7.82996 5.71988 7.82996C7.87988 7.82996 9.08988 8.08996 9.61988 10.07L11.0299 16.72" stroke="#E5BF7C" stroke-width="1.27" stroke-miterlimit="10"/>
<path d="M5.64012 7.83997C3.27012 7.83997 3.12012 9.85997 3.12012 9.85997V15.72L5.08012 23.81C5.19012 24.52 6.21012 24.52 6.32012 23.81L8.28012 15.72V9.82997C8.28012 9.82997 8.21012 7.84997 5.64012 7.84997V7.83997Z" stroke="#E5BF7C" stroke-width="1.27" stroke-miterlimit="10"/>
</svg>
