<svg width="34" height="24" viewBox="0 0 34 24" fill="none" xmlns="http://www.w3.org/2000/svg">
<path d="M17.6619 21.9564C17.2928 21.6217 16.9303 21.2861 16.5744 20.9495C14.8983 19.3626 14.5574 17.7183 15.5518 16.0166C16.5376 14.3356 18.2919 13.6192 20.2015 13.8167C20.2305 13.8194 20.2596 13.8136 20.2854 13.8C20.3111 13.7864 20.3323 13.7656 20.3464 13.7402C20.3605 13.7147 20.3669 13.6857 20.3647 13.6567C20.3625 13.6277 20.352 13.6 20.3342 13.5769L18.5546 11.3459C18.4755 11.2444 18.3898 11.2397 18.2975 11.3318L12.3597 17.283C12.2919 17.3488 12.258 17.4287 12.258 17.5227L12.2636 22.7236C12.2636 22.8364 12.2071 22.8985 12.0941 22.9097C11.3276 22.9756 10.5602 22.9483 9.79185 22.828C9.67985 22.8179 9.57645 22.7637 9.5044 22.6775C9.43235 22.5913 9.39756 22.4801 9.40767 22.3682C9.41779 22.2564 9.47198 22.1532 9.55833 22.0812C9.64468 22.0093 9.75612 21.9745 9.86812 21.9846L11.1393 22.0157C11.1609 22.0164 11.1825 22.0128 11.2026 22.0049C11.2228 21.997 11.2412 21.9851 11.2568 21.9698C11.2724 21.9545 11.2847 21.9362 11.2932 21.916C11.3016 21.8958 11.306 21.874 11.306 21.8521L11.2749 18.4845C11.273 18.3547 11.2278 18.3369 11.1393 18.4309C9.86436 19.7753 8.56115 21.0896 7.2297 22.3739C6.93874 22.6559 6.68733 23.0197 6.241 22.8139C6.18024 22.7856 6.12716 22.7431 6.0863 22.6901C6.04543 22.6371 6.018 22.5751 6.00634 22.5094C5.99468 22.4437 5.99915 22.3763 6.01935 22.3129C6.03955 22.2495 6.07489 22.1921 6.12235 22.1454L11.0969 17.1758C11.161 17.11 11.1996 17.031 11.2128 16.9389C11.3747 15.7261 11.3135 14.8038 11.0291 14.172C10.1421 12.209 9.61859 10.1557 9.45852 8.01219C9.45099 7.90877 9.3992 7.8392 9.30315 7.80348C8.8314 7.62579 8.28902 7.74143 7.89072 7.5863C6.83987 7.18016 5.82857 5.89686 6.05738 4.63613C6.0669 4.58496 6.09002 4.53729 6.1243 4.49809C6.15859 4.45889 6.2028 4.42961 6.2523 4.41331L7.84835 3.88589C7.93874 3.8558 8.01219 3.80128 8.06868 3.7223C9.17038 2.1673 10.6318 1.66526 12.4529 2.21619C13.402 2.50387 14.0395 3.10839 14.3653 4.02973C14.3785 4.06546 14.4548 4.59006 14.5941 5.60354C14.8568 7.48477 16.8823 8.7032 18.1958 9.87086C18.2655 9.93291 18.3333 9.93103 18.3992 9.86522C20.9115 7.37571 23.4134 4.87116 25.9049 2.35157C26.2702 1.98303 26.597 1.93979 26.8851 2.22183C26.9213 2.2573 26.95 2.29955 26.9697 2.34616C26.9894 2.39277 26.9997 2.44282 27 2.49342C27.0003 2.54401 26.9905 2.59416 26.9713 2.64097C26.952 2.68779 26.9237 2.73034 26.8879 2.76617L19.1506 10.4914C19.0885 10.5515 19.0875 10.6126 19.1478 10.6747C22.3286 13.9379 23.1648 17.3563 23.4529 21.8126C23.4604 21.9292 23.5198 21.9705 23.6309 21.9367C25.1582 21.4779 25.9595 20.4419 26.0348 18.8286C26.038 18.7309 26.0751 18.6374 26.1398 18.5642C26.2045 18.4909 26.2927 18.4424 26.3894 18.4271C26.486 18.4117 26.5849 18.4304 26.6692 18.48C26.7535 18.5296 26.8179 18.607 26.8512 18.6988C26.9906 19.0692 26.9802 19.5045 26.8201 20.0047C26.1911 21.979 24.8625 22.9436 22.8343 22.8985C22.7875 22.8974 22.7414 22.8871 22.6987 22.8682C22.6559 22.8493 22.6173 22.8222 22.585 22.7884C22.5528 22.7546 22.5275 22.7148 22.5106 22.6713C22.4938 22.6277 22.4857 22.5813 22.4868 22.5346C22.5358 20.0846 22.1422 17.7474 21.306 15.523C21.145 15.0943 20.9896 14.7925 20.4868 14.7248C17.7636 14.3497 14.4755 16.7668 16.5546 19.6014C17.5885 21.0116 18.9962 21.869 20.7778 22.1736C20.887 22.1924 20.9435 22.2573 20.9472 22.3682L20.9614 22.8477C20.9633 22.9492 20.9143 23 20.8145 23C18.6676 22.9981 16.5216 22.9718 14.3766 22.921C14.1713 22.9154 14.0056 22.8797 13.8794 22.8139C13.7915 22.7689 13.7215 22.6954 13.681 22.6054C13.6404 22.5154 13.6318 22.4144 13.6564 22.3188C13.6811 22.2233 13.7376 22.139 13.8166 22.0798C13.8957 22.0206 13.9925 21.99 14.0913 21.9931L17.6167 22.0693C17.7316 22.0711 17.7467 22.0335 17.6619 21.9564ZM11.6026 3.81256L11.95 3.8323C11.9873 3.83433 12.0236 3.84399 12.057 3.86068C12.0903 3.87737 12.1198 3.90074 12.1436 3.92932C12.1675 3.9579 12.1852 3.99109 12.1956 4.0268C12.206 4.06252 12.209 4.1 12.2043 4.13691L11.9275 6.33403C11.9209 6.38752 11.9311 6.44172 11.9565 6.48925C11.9819 6.53678 12.0214 6.57534 12.0696 6.59968C12.1177 6.62403 12.1722 6.63298 12.2256 6.62531C12.279 6.61765 12.3288 6.59374 12.3681 6.55684C12.919 6.04352 13.9246 5.24252 13.5178 4.39075C13.0113 3.3359 12.1544 2.85643 10.9472 2.95232C9.69298 3.05104 9.4218 3.63205 8.71275 4.34562C8.26925 4.78843 7.73253 4.84484 7.1506 5.06765C7.04514 5.10714 7.00465 5.18141 7.02913 5.29047C7.53196 7.60605 10.354 6.02096 10.4839 8.04886C10.6054 9.93855 10.7975 10.7621 11.515 12.7562C11.871 13.7414 12.129 14.7521 12.289 15.7881C12.306 15.8934 12.3521 15.9085 12.4275 15.8333L17.5461 10.7198C17.6309 10.6333 17.6271 10.5525 17.5348 10.4773C16.3314 9.4901 14.4811 8.18424 13.9162 6.75145C13.8389 6.5559 13.7316 6.5371 13.5941 6.69505C13.0348 7.34375 12.2523 8.0545 11.4811 7.30708C10.7156 6.56248 11.0376 4.81663 11.4105 3.93102C11.4262 3.89381 11.4532 3.86242 11.4876 3.84119C11.522 3.81996 11.5622 3.80996 11.6026 3.81256Z" fill="#E5BF7C"/>
</svg>
