<svg width="26" height="12" viewBox="0 0 26 12" fill="none" xmlns="http://www.w3.org/2000/svg">
<path d="M1 11.51V9.17002C1 8.40002 1.63 7.77002 2.4 7.77002H23.85C24.62 7.77002 25.25 8.40002 25.25 9.17002V11.51" stroke="#E5BF7C" stroke-width="1.27" stroke-miterlimit="10"/>
<path d="M1 10.05V7.07004C1 6.30004 1.63 5.67004 2.4 5.67004H23.85C24.62 5.67004 25.25 6.30004 25.25 7.07004V10.05" stroke="#E5BF7C" stroke-width="1.27" stroke-miterlimit="10"/>
<path d="M4.55989 1H9.82989C10.9599 1 11.8699 1.92 11.8699 3.04V5.7H2.63989V2.92C2.63989 1.86 3.49989 1 4.55989 1V1Z" stroke="#E5BF7C" stroke-width="1.27" stroke-miterlimit="10"/>
<path d="M15.2501 1H20.5201C21.6501 1 22.5601 1.92 22.5601 3.04V5.7H13.3301V2.92C13.3301 1.86 14.1901 1 15.2501 1V1Z" stroke="#E5BF7C" stroke-width="1.27" stroke-miterlimit="10"/>
<path d="M24.6501 6.23999H1.62012V7.30999H24.6501V6.23999Z" fill="#E5BF7C"/>
</svg>
