<svg width="27" height="21" viewBox="0 0 27 21" fill="none" xmlns="http://www.w3.org/2000/svg">
<path d="M4.2002 18.8624V17.0724C4.2002 16.4824 4.6802 16.0024 5.2702 16.0024H21.6602C22.2502 16.0024 22.7302 16.4824 22.7302 17.0724V18.8624" stroke="#E5BF7C" stroke-width="1.27" stroke-miterlimit="10"/>
<path d="M4.2002 17.7426V15.4626C4.2002 14.8726 4.6802 14.3926 5.2702 14.3926H21.6602C22.2502 14.3926 22.7302 14.8726 22.7302 15.4626V17.7426" stroke="#E5BF7C" stroke-width="1.27" stroke-miterlimit="10"/>
<path d="M1.27979 20.1226H26.4798" stroke="#E5BF7C" stroke-width="1.27" stroke-miterlimit="10"/>
<path d="M1 8.66252L10.96 1.79252C12.5 0.732518 14.43 0.732518 15.96 1.81252L26.34 9.06252" stroke="#E5BF7C" stroke-width="1.27" stroke-miterlimit="10"/>
<path d="M6.9202 10.8325H10.9402C11.8002 10.8325 12.5002 11.5325 12.5002 12.3925V14.4225H5.4502V12.3025C5.4502 11.4925 6.1102 10.8325 6.9202 10.8325V10.8325Z" stroke="#E5BF7C" stroke-width="1.27" stroke-miterlimit="10"/>
<path d="M15.0901 10.8325H19.1101C19.9701 10.8325 20.6701 11.5325 20.6701 12.3925V14.4225H13.6201V12.3025C13.6201 11.4925 14.2801 10.8325 15.0901 10.8325V10.8325Z" stroke="#E5BF7C" stroke-width="1.27" stroke-miterlimit="10"/>
<path d="M22.2702 14.8325H4.68018V15.6525H22.2702V14.8325Z" fill="#E5BF7C"/>
</svg>
