<svg width="17" height="12" viewBox="0 0 17 12" fill="none" xmlns="http://www.w3.org/2000/svg">
<path d="M1 11.51V9.17002C1 8.40002 1.63 7.77002 2.4 7.77002H14.68C15.45 7.77002 16.08 8.40002 16.08 9.17002V11.51" stroke="#E5BF7C" stroke-width="1.27" stroke-miterlimit="10"/>
<path d="M1 10.05V7.07004C1 6.30004 1.63 5.67004 2.4 5.67004H14.68C15.45 5.67004 16.08 6.30004 16.08 7.07004V10.05" stroke="#E5BF7C" stroke-width="1.27" stroke-miterlimit="10"/>
<path d="M4.66 1H12.14C13.27 1 14.18 1.92 14.18 3.04V5.7H2.75V2.92C2.75 1.86 3.61 1 4.67 1H4.66Z" stroke="#E5BF7C" stroke-width="1.27" stroke-miterlimit="10"/>
<path d="M15.4801 6.23999H1.62012V7.30999H15.4801V6.23999Z" fill="#E5BF7C"/>
</svg>
