<svg width="35" height="20" viewBox="0 0 35 20" fill="none" xmlns="http://www.w3.org/2000/svg">
<path d="M9.41012 0.500032L22.2001 1.95003L1.87012 14.99L5.52012 2.99003C6.16012 1.55003 7.83012 0.480032 9.41012 0.500032Z" stroke="#E5BF7C" stroke-miterlimit="10"/>
<path d="M12.3403 8.59998L19.2103 18.76" stroke="#E5BF7C" stroke-width="1.27" stroke-miterlimit="10"/>
<path d="M34.4002 9.71007C32.9902 8.61007 31.4902 8.47007 29.4302 9.76007C27.7502 10.8101 25.6102 10.6001 24.1902 9.76007C22.7802 8.66007 21.2902 8.47007 19.2202 9.76007C17.5402 10.8101 15.4002 10.6501 13.9702 9.80007" stroke="#E5BF7C" stroke-width="1.27" stroke-miterlimit="10"/>
<path d="M34.4002 12.8501C32.9902 11.7501 31.4902 11.6101 29.4302 12.9001C27.7502 13.9501 25.6102 13.7401 24.1902 12.9001C22.7802 11.8001 21.2902 11.6101 19.2202 12.9001C17.5402 13.9501 15.4002 13.7901 13.9702 12.9401" stroke="#E5BF7C" stroke-width="1.27" stroke-miterlimit="10"/>
<path d="M34.4002 16C32.9902 14.9 31.4902 14.76 29.4302 16.05C27.7502 17.1 25.6102 16.89 24.1902 16.05C22.7802 14.95 21.2902 14.76 19.2202 16.05C17.5402 17.1 15.4002 16.94 13.9702 16.09" stroke="#E5BF7C" stroke-width="1.27" stroke-miterlimit="10"/>
<path d="M5.52002 12.52L8.16002 3.84998" stroke="#E5BF7C" stroke-miterlimit="10"/>
<path d="M9.28027 10.1501L10.4903 6.18005" stroke="#E5BF7C" stroke-miterlimit="10"/>
</svg>
