<?xml version="1.0" encoding="utf-8" ?>
<svg baseProfile="full" height="90" version="1.1" width="52" xmlns="http://www.w3.org/2000/svg" xmlns:ev="http://www.w3.org/2001/xml-events" xmlns:xlink="http://www.w3.org/1999/xlink"><defs /><polyline fill="#E5BF7C" points="2.0,75.99686274509804 1.0031372549019608,75.0 1.0031372549019608,74.0 1.0031372549019608,73.0 1.0031372549019608,72.0 1.0031372549019608,71.0 1.0031372549019608,70.0 1.0031372549019608,69.0 1.0031372549019608,68.0 1.0031372549019608,67.0 1.0031372549019608,66.0 1.0031372549019608,65.0 1.0031372549019608,64.0 1.0031372549019608,63.0 1.0031372549019608,62.0 1.0031372549019608,61.0 1.0031372549019608,60.0 1.0031372549019608,59.0 1.0031372549019608,58.0 1.0031372549019608,57.0 1.0031372549019608,56.0 1.0031372549019608,55.0 1.0031372549019608,54.0 1.0031372549019608,53.0 1.0031372549019608,52.0 1.0031372549019608,51.0 1.0031372549019608,50.0 1.0031372549019608,49.0 1.0031372549019608,48.0 1.0031372549019608,47.0 1.0031372549019608,46.0 1.0031372549019608,45.0 1.0031372549019608,44.0 1.0031372549019608,43.0 1.0031372549019608,42.0 1.0031372549019608,41.0 1.0031372549019608,40.0 1.0031372549019608,39.0 1.0031372549019608,38.0 1.0031372549019608,37.0 1.0031372549019608,36.0 1.0031372549019608,35.0 1.0031372549019608,34.0 1.0031372549019608,33.0 1.0031372549019608,32.0 1.0031372549019608,31.0 1.0031372549019608,30.0 1.0031372549019608,29.0 1.0031372549019608,28.0 1.0031372549019608,27.0 1.0031372549019608,26.0 1.0031372549019608,25.0 1.0031372549019608,24.0 1.0031372549019608,23.0 1.0031372549019608,22.0 1.0031372549019608,21.0 1.0031372549019608,20.0 1.0031372549019608,19.0 1.0031372549019608,18.0 1.0031372549019608,17.0 1.0031372549019608,16.0 1.0031372549019608,15.0 1.0031372549019608,14.0 1.0031372549019608,13.0 1.0031372549019608,12.0 1.0031372549019608,11.0 1.0031372549019608,10.0 1.0031372549019608,9.0 1.0031372549019608,8.0 1.0031372549019608,7.0 1.0031372549019608,6.0 1.0031372549019608,5.0 1.0031372549019608,4.0 1.0031372549019608,3.0 1.0031372549019608,2.0 2.0,1.0031372549019608 3.0,1.0031372549019608 3.9968627450980394,2.0 4.0,2.0031372549019606 5.0,2.0031372549019606 5.003137254901961,2.0 6.0,1.0031372549019608 7.0,1.0031372549019608 7.996862745098039,2.0 8.0,2.0031372549019606 9.0,2.0031372549019606 10.0,2.0031372549019606 11.0,2.0031372549019606 12.0,2.0031372549019606 13.0,2.0031372549019606 14.0,2.0031372549019606 15.0,2.0031372549019606 16.0,2.0031372549019606 17.0,2.0031372549019606 18.0,2.0031372549019606 19.0,2.0031372549019606 20.0,2.0031372549019606 21.0,2.0031372549019606 22.0,2.0031372549019606 23.0,2.0031372549019606 24.0,2.0031372549019606 25.0,2.0031372549019606 26.0,2.0031372549019606 27.0,2.0031372549019606 28.0,2.0031372549019606 29.0,2.0031372549019606 30.0,2.0031372549019606 30.00313725490196,2.0 31.0,1.0031372549019608 31.99686274509804,2.0 32.0,2.0031372549019606 32.99686274509804,3.0 32.99686274509804,4.0 32.99686274509804,5.0 32.99686274509804,6.0 32.99686274509804,7.0 32.99686274509804,8.0 32.99686274509804,9.0 32.0,9.996862745098039 31.99686274509804,10.0 31.0,10.996862745098039 30.00313725490196,10.0 30.00313725490196,9.0 30.00313725490196,8.0 30.00313725490196,7.0 30.00313725490196,6.0 30.00313725490196,5.0 30.00313725490196,4.0 30.0,3.9968627450980394 29.0,3.9968627450980394 28.0,3.9968627450980394 27.0,3.9968627450980394 26.0,3.9968627450980394 25.0,3.9968627450980394 24.0,3.9968627450980394 23.0,3.9968627450980394 22.0,3.9968627450980394 21.0,3.9968627450980394 20.0,3.9968627450980394 19.0,3.9968627450980394 18.0,3.9968627450980394 17.0,3.9968627450980394 16.0,3.9968627450980394 15.0,3.9968627450980394 14.0,3.9968627450980394 13.0,3.9968627450980394 12.0,3.9968627450980394 11.0,3.9968627450980394 10.0,3.9968627450980394 9.0,3.9968627450980394 8.0,3.9968627450980394 7.0,3.9968627450980394 6.0,3.9968627450980394 5.0,3.9968627450980394 4.0,3.9968627450980394 3.9968627450980394,4.0 3.9968627450980394,5.0 3.9968627450980394,6.0 3.9968627450980394,7.0 3.9968627450980394,8.0 3.9968627450980394,9.0 3.9968627450980394,10.0 3.9968627450980394,11.0 3.9968627450980394,12.0 3.9968627450980394,13.0 3.9968627450980394,14.0 3.9968627450980394,15.0 3.9968627450980394,16.0 3.9968627450980394,17.0 3.9968627450980394,18.0 3.9968627450980394,19.0 3.9968627450980394,20.0 3.9968627450980394,21.0 3.9968627450980394,22.0 3.9968627450980394,23.0 3.9968627450980394,24.0 3.9968627450980394,25.0 3.9968627450980394,26.0 3.9968627450980394,27.0 3.9968627450980394,28.0 3.9968627450980394,29.0 3.9968627450980394,30.0 3.9968627450980394,31.0 3.9968627450980394,32.0 3.9968627450980394,33.0 3.9968627450980394,34.0 3.9968627450980394,35.0 3.9968627450980394,36.0 3.9968627450980394,37.0 3.9968627450980394,38.0 3.9968627450980394,39.0 3.9968627450980394,40.0 3.9968627450980394,41.0 3.9968627450980394,42.0 3.9968627450980394,43.0 3.9968627450980394,44.0 3.9968627450980394,45.0 3.9968627450980394,46.0 3.9968627450980394,47.0 3.9968627450980394,48.0 3.9968627450980394,49.0 3.9968627450980394,50.0 3.9968627450980394,51.0 3.9968627450980394,52.0 3.9968627450980394,53.0 3.9968627450980394,54.0 3.9968627450980394,55.0 3.9968627450980394,56.0 3.9968627450980394,57.0 3.9968627450980394,58.0 3.9968627450980394,59.0 3.9968627450980394,60.0 3.9968627450980394,61.0 3.9968627450980394,62.0 3.9968627450980394,63.0 3.9968627450980394,64.0 3.9968627450980394,65.0 3.9968627450980394,66.0 3.9968627450980394,67.0 3.9968627450980394,68.0 3.9968627450980394,69.0 3.9968627450980394,70.0 3.9968627450980394,71.0 3.9968627450980394,72.0 3.9968627450980394,73.0 3.0,73.99686274509804 2.9968627450980394,74.0 2.9968627450980394,75.0 2.0,75.99686274509804" stroke="none" /><polyline fill="#E5BF7C" points="50.0,13.996862745098039 49.0,13.996862745098039 48.0,13.996862745098039 47.0,13.996862745098039 46.0,13.996862745098039 45.0,13.996862745098039 44.0,13.996862745098039 43.0,13.996862745098039 42.0,13.996862745098039 41.0,13.996862745098039 40.0,13.996862745098039 39.0,13.996862745098039 38.0,13.996862745098039 37.0,13.996862745098039 36.0,13.996862745098039 35.0,13.996862745098039 34.0,13.996862745098039 33.0,13.996862745098039 32.0,13.996862745098039 31.0,13.996862745098039 30.0,13.996862745098039 29.0,13.996862745098039 28.0,13.996862745098039 27.0,13.996862745098039 26.0,13.996862745098039 25.0,13.996862745098039 24.0,13.996862745098039 23.0,13.996862745098039 22.0,13.996862745098039 21.0,13.996862745098039 20.0,13.996862745098039 19.0,13.996862745098039 18.0,13.996862745098039 17.0,13.996862745098039 16.0,13.996862745098039 15.0,13.996862745098039 14.0,13.996862745098039 13.0,13.996862745098039 12.0,13.996862745098039 11.003137254901961,13.0 12.0,12.003137254901961 13.0,12.003137254901961 14.0,12.003137254901961 15.0,12.003137254901961 16.0,12.003137254901961 17.0,12.003137254901961 18.0,12.003137254901961 19.0,12.003137254901961 20.0,12.003137254901961 21.0,12.003137254901961 22.0,12.003137254901961 23.0,12.003137254901961 24.0,12.003137254901961 25.0,12.003137254901961 26.0,12.003137254901961 27.0,12.003137254901961 28.0,12.003137254901961 29.0,12.003137254901961 30.0,12.003137254901961 31.0,12.003137254901961 32.0,12.003137254901961 33.0,12.003137254901961 34.0,12.003137254901961 35.0,12.003137254901961 36.0,12.003137254901961 37.0,12.003137254901961 38.0,12.003137254901961 39.0,12.003137254901961 40.0,12.003137254901961 41.0,12.003137254901961 42.0,12.003137254901961 43.0,12.003137254901961 44.0,12.003137254901961 45.0,12.003137254901961 46.0,12.003137254901961 47.0,12.003137254901961 48.0,12.003137254901961 49.0,12.003137254901961 49.00313725490196,12.0 50.0,11.003137254901961 50.99686274509804,12.0 50.99686274509804,13.0 50.0,13.996862745098039" stroke="none" /><polyline fill="#E5BF7C" points="17.0,21.99686274509804 16.00313725490196,21.0 16.0,20.99686274509804 15.003137254901961,20.0 15.003137254901961,19.0 15.003137254901961,18.0 16.0,17.00313725490196 17.0,17.00313725490196 17.99686274509804,18.0 18.0,18.00313725490196 18.99686274509804,19.0 18.99686274509804,20.0 18.0,20.99686274509804 17.99686274509804,21.0 17.0,21.99686274509804" stroke="none" /><polyline fill="#E5BF7C" points="24.0,21.99686274509804 23.00313725490196,21.0 23.0,20.99686274509804 22.00313725490196,20.0 22.00313725490196,19.0 22.00313725490196,18.0 23.0,17.00313725490196 24.0,17.00313725490196 25.0,17.00313725490196 25.99686274509804,18.0 25.99686274509804,19.0 25.99686274509804,20.0 25.0,20.99686274509804 24.99686274509804,21.0 24.0,21.99686274509804" stroke="none" /><polyline fill="#E5BF7C" points="31.0,21.99686274509804 30.00313725490196,21.0 30.0,20.99686274509804 29.00313725490196,20.0 29.00313725490196,19.0 30.0,18.00313725490196 30.00313725490196,18.0 31.0,17.00313725490196 32.0,17.00313725490196 32.99686274509804,18.0 32.99686274509804,19.0 32.99686274509804,20.0 32.0,20.99686274509804 31.99686274509804,21.0 31.0,21.99686274509804" stroke="none" /><polyline fill="#E5BF7C" points="38.0,21.99686274509804 37.00313725490196,21.0 37.0,20.99686274509804 36.00313725490196,20.0 36.00313725490196,19.0 37.0,18.00313725490196 37.00313725490196,18.0 38.0,17.00313725490196 39.0,17.00313725490196 39.99686274509804,18.0 40.0,18.00313725490196 40.99686274509804,19.0 40.99686274509804,20.0 40.0,20.99686274509804 39.0,20.99686274509804 38.99686274509804,21.0 38.0,21.99686274509804" stroke="none" /><polyline fill="#E5BF7C" points="46.0,21.99686274509804 45.00313725490196,21.0 45.0,20.99686274509804 44.0,20.99686274509804 43.00313725490196,20.0 43.00313725490196,19.0 44.0,18.00313725490196 44.00313725490196,18.0 45.0,17.00313725490196 46.0,17.00313725490196 46.99686274509804,18.0 47.0,18.00313725490196 47.99686274509804,19.0 47.99686274509804,20.0 47.0,20.99686274509804 46.99686274509804,21.0 46.0,21.99686274509804" stroke="none" /><polyline fill="#E5BF7C" points="17.0,27.99686274509804 16.0,27.99686274509804 15.003137254901961,27.0 15.003137254901961,26.0 15.003137254901961,25.0 16.0,24.00313725490196 17.0,24.00313725490196 18.0,24.00313725490196 18.99686274509804,25.0 18.99686274509804,26.0 18.0,26.99686274509804 17.99686274509804,27.0 17.0,27.99686274509804" stroke="none" /><polyline fill="#E5BF7C" points="25.0,27.99686274509804 24.0,27.99686274509804 23.0,27.99686274509804 22.00313725490196,27.0 22.00313725490196,26.0 22.00313725490196,25.0 23.0,24.00313725490196 24.0,24.00313725490196 25.0,24.00313725490196 25.99686274509804,25.0 25.99686274509804,26.0 25.99686274509804,27.0 25.0,27.99686274509804" stroke="none" /><polyline fill="#E5BF7C" points="32.0,27.99686274509804 31.0,27.99686274509804 30.00313725490196,27.0 30.0,26.99686274509804 29.00313725490196,26.0 29.00313725490196,25.0 30.0,24.00313725490196 31.0,24.00313725490196 32.0,24.00313725490196 32.99686274509804,25.0 32.99686274509804,26.0 32.99686274509804,27.0 32.0,27.99686274509804" stroke="none" /><polyline fill="#E5BF7C" points="39.0,27.99686274509804 38.0,27.99686274509804 37.00313725490196,27.0 37.0,26.99686274509804 36.00313725490196,26.0 37.0,25.00313725490196 37.00313725490196,25.0 38.0,24.00313725490196 39.0,24.00313725490196 39.99686274509804,25.0 40.0,25.00313725490196 40.99686274509804,26.0 40.0,26.99686274509804 39.99686274509804,27.0 39.0,27.99686274509804" stroke="none" /><polyline fill="#E5BF7C" points="46.0,27.99686274509804 45.0,27.99686274509804 44.00313725490196,27.0 44.0,26.99686274509804 43.00313725490196,26.0 44.0,25.00313725490196 44.00313725490196,25.0 45.0,24.00313725490196 46.0,24.00313725490196 47.0,24.00313725490196 47.99686274509804,25.0 47.99686274509804,26.0 47.0,26.99686274509804 46.99686274509804,27.0 46.0,27.99686274509804" stroke="none" /><polyline fill="#E5BF7C" points="18.0,33.99686274509804 17.0,33.99686274509804 16.0,33.99686274509804 15.003137254901961,33.0 15.003137254901961,32.0 16.0,31.00313725490196 16.00313725490196,31.0 17.0,30.00313725490196 17.99686274509804,31.0 18.0,31.00313725490196 18.99686274509804,32.0 18.99686274509804,33.0 18.0,33.99686274509804" stroke="none" /><polyline fill="#E5BF7C" points="25.0,33.99686274509804 24.0,33.99686274509804 23.0,33.99686274509804 22.00313725490196,33.0 22.00313725490196,32.0 23.0,31.00313725490196 23.00313725490196,31.0 24.0,30.00313725490196 24.99686274509804,31.0 25.0,31.00313725490196 25.99686274509804,32.0 25.99686274509804,33.0 25.0,33.99686274509804" stroke="none" /><polyline fill="#E5BF7C" points="32.0,33.99686274509804 31.0,33.99686274509804 30.0,33.99686274509804 29.00313725490196,33.0 29.00313725490196,32.0 30.0,31.00313725490196 30.00313725490196,31.0 31.0,30.00313725490196 32.0,30.00313725490196 32.99686274509804,31.0 32.99686274509804,32.0 32.99686274509804,33.0 32.0,33.99686274509804" stroke="none" /><polyline fill="#E5BF7C" points="39.0,33.99686274509804 38.0,33.99686274509804 37.00313725490196,33.0 37.0,32.99686274509804 36.00313725490196,32.0 37.0,31.00313725490196 37.00313725490196,31.0 38.0,30.00313725490196 39.0,30.00313725490196 39.99686274509804,31.0 40.0,31.00313725490196 40.99686274509804,32.0 40.0,32.99686274509804 39.99686274509804,33.0 39.0,33.99686274509804" stroke="none" /><polyline fill="#E5BF7C" points="47.0,33.99686274509804 46.0,33.99686274509804 45.0,33.99686274509804 44.00313725490196,33.0 44.00313725490196,32.0 44.00313725490196,31.0 45.0,30.00313725490196 46.0,30.00313725490196 46.99686274509804,31.0 47.0,31.00313725490196 47.99686274509804,32.0 47.99686274509804,33.0 47.0,33.99686274509804" stroke="none" /><polyline fill="#E5BF7C" points="17.0,40.99686274509804 16.00313725490196,40.0 16.0,39.99686274509804 15.003137254901961,39.0 15.003137254901961,38.0 16.0,37.00313725490196 17.0,37.00313725490196 18.0,37.00313725490196 18.99686274509804,38.0 18.99686274509804,39.0 18.0,39.99686274509804 17.99686274509804,40.0 17.0,40.99686274509804" stroke="none" /><polyline fill="#E5BF7C" points="24.0,40.99686274509804 23.00313725490196,40.0 23.0,39.99686274509804 22.00313725490196,39.0 22.00313725490196,38.0 23.0,37.00313725490196 24.0,37.00313725490196 25.0,37.00313725490196 25.99686274509804,38.0 25.99686274509804,39.0 25.0,39.99686274509804 24.99686274509804,40.0 24.0,40.99686274509804" stroke="none" /><polyline fill="#E5BF7C" points="31.0,40.99686274509804 30.00313725490196,40.0 30.0,39.99686274509804 29.00313725490196,39.0 30.0,38.00313725490196 30.00313725490196,38.0 31.0,37.00313725490196 32.0,37.00313725490196 32.99686274509804,38.0 32.99686274509804,39.0 32.0,39.99686274509804 31.99686274509804,40.0 31.0,40.99686274509804" stroke="none" /><polyline fill="#E5BF7C" points="39.0,40.99686274509804 38.0,40.99686274509804 37.00313725490196,40.0 37.00313725490196,39.0 37.00313725490196,38.0 38.0,37.00313725490196 39.0,37.00313725490196 39.99686274509804,38.0 39.99686274509804,39.0 39.99686274509804,40.0 39.0,40.99686274509804" stroke="none" /><polyline fill="#E5BF7C" points="46.0,40.99686274509804 45.0,40.99686274509804 44.00313725490196,40.0 44.00313725490196,39.0 44.00313725490196,38.0 45.0,37.00313725490196 46.0,37.00313725490196 46.99686274509804,38.0 47.0,38.00313725490196 47.99686274509804,39.0 47.0,39.99686274509804 46.99686274509804,40.0 46.0,40.99686274509804" stroke="none" /><polyline fill="#E5BF7C" points="17.0,46.99686274509804 16.0,46.99686274509804 15.003137254901961,46.0 15.003137254901961,45.0 16.0,44.00313725490196 16.00313725490196,44.0 17.0,43.00313725490196 17.99686274509804,44.0 18.0,44.00313725490196 18.99686274509804,45.0 18.0,45.99686274509804 17.99686274509804,46.0 17.0,46.99686274509804" stroke="none" /><polyline fill="#E5BF7C" points="25.0,46.99686274509804 24.0,46.99686274509804 23.0,46.99686274509804 22.00313725490196,46.0 22.00313725490196,45.0 23.0,44.00313725490196 23.00313725490196,44.0 24.0,43.00313725490196 24.99686274509804,44.0 25.0,44.00313725490196 25.99686274509804,45.0 25.99686274509804,46.0 25.0,46.99686274509804" stroke="none" /><polyline fill="#E5BF7C" points="32.0,46.99686274509804 31.0,46.99686274509804 30.00313725490196,46.0 30.0,45.99686274509804 29.00313725490196,45.0 30.0,44.00313725490196 30.00313725490196,44.0 31.0,43.00313725490196 31.99686274509804,44.0 32.0,44.00313725490196 32.99686274509804,45.0 32.99686274509804,46.0 32.0,46.99686274509804" stroke="none" /><polyline fill="#E5BF7C" points="39.0,46.99686274509804 38.0,46.99686274509804 37.00313725490196,46.0 37.00313725490196,45.0 37.00313725490196,44.0 38.0,43.00313725490196 39.0,43.00313725490196 39.99686274509804,44.0 39.99686274509804,45.0 39.99686274509804,46.0 39.0,46.99686274509804" stroke="none" /><polyline fill="#E5BF7C" points="46.0,46.99686274509804 45.0,46.99686274509804 44.00313725490196,46.0 44.00313725490196,45.0 45.0,44.00313725490196 45.00313725490196,44.0 46.0,43.00313725490196 46.99686274509804,44.0 47.0,44.00313725490196 47.99686274509804,45.0 47.0,45.99686274509804 46.99686274509804,46.0 46.0,46.99686274509804" stroke="none" /><polyline fill="#E5BF7C" points="18.0,52.99686274509804 17.0,52.99686274509804 16.0,52.99686274509804 15.003137254901961,52.0 15.003137254901961,51.0 16.0,50.00313725490196 17.0,50.00313725490196 17.99686274509804,51.0 18.0,51.00313725490196 18.99686274509804,52.0 18.0,52.99686274509804" stroke="none" /><polyline fill="#E5BF7C" points="25.0,52.99686274509804 24.0,52.99686274509804 23.0,52.99686274509804 22.00313725490196,52.0 22.00313725490196,51.0 23.0,50.00313725490196 24.0,50.00313725490196 25.0,50.00313725490196 25.99686274509804,51.0 25.99686274509804,52.0 25.0,52.99686274509804" stroke="none" /><polyline fill="#E5BF7C" points="32.0,52.99686274509804 31.0,52.99686274509804 30.00313725490196,52.0 30.00313725490196,51.0 31.0,50.00313725490196 32.0,50.00313725490196 32.99686274509804,51.0 32.99686274509804,52.0 32.0,52.99686274509804" stroke="none" /><polyline fill="#E5BF7C" points="39.0,52.99686274509804 38.0,52.99686274509804 37.00313725490196,52.0 37.00313725490196,51.0 38.0,50.00313725490196 39.0,50.00313725490196 39.99686274509804,51.0 39.99686274509804,52.0 39.0,52.99686274509804" stroke="none" /><polyline fill="#E5BF7C" points="46.0,52.99686274509804 45.0,52.99686274509804 44.00313725490196,52.0 44.00313725490196,51.0 45.0,50.00313725490196 46.0,50.00313725490196 46.99686274509804,51.0 46.99686274509804,52.0 46.0,52.99686274509804" stroke="none" /><polyline fill="#E5BF7C" points="17.0,59.99686274509804 16.00313725490196,59.0 16.0,58.99686274509804 15.003137254901961,58.0 16.0,57.00313725490196 16.00313725490196,57.0 17.0,56.00313725490196 17.99686274509804,57.0 18.0,57.00313725490196 18.99686274509804,58.0 18.0,58.99686274509804 17.99686274509804,59.0 17.0,59.99686274509804" stroke="none" /><polyline fill="#E5BF7C" points="24.0,59.99686274509804 23.00313725490196,59.0 23.0,58.99686274509804 22.00313725490196,58.0 23.0,57.00313725490196 23.00313725490196,57.0 24.0,56.00313725490196 24.99686274509804,57.0 25.0,57.00313725490196 25.99686274509804,58.0 25.0,58.99686274509804 24.99686274509804,59.0 24.0,59.99686274509804" stroke="none" /><polyline fill="#E5BF7C" points="32.0,59.99686274509804 31.0,59.99686274509804 30.00313725490196,59.0 30.00313725490196,58.0 30.00313725490196,57.0 31.0,56.00313725490196 31.99686274509804,57.0 32.0,57.00313725490196 32.99686274509804,58.0 32.99686274509804,59.0 32.0,59.99686274509804" stroke="none" /><polyline fill="#E5BF7C" points="46.0,59.99686274509804 45.0,59.99686274509804 44.00313725490196,59.0 44.00313725490196,58.0 45.0,57.00313725490196 45.00313725490196,57.0 46.0,56.00313725490196 46.99686274509804,57.0 46.99686274509804,58.0 46.99686274509804,59.0 46.0,59.99686274509804" stroke="none" /><polyline fill="#E5BF7C" points="39.0,59.99686274509804 38.0,59.99686274509804 37.00313725490196,59.0 37.00313725490196,58.0 38.0,57.00313725490196 39.0,57.00313725490196 39.99686274509804,58.0 39.99686274509804,59.0 39.0,59.99686274509804" stroke="none" /></svg>